<svg width="184" height="184" viewBox="0 0 184 184" fill="none" xmlns="http://www.w3.org/2000/svg">
<g clip-path="url(#clip0_8_2)">
<path d="M92 21.2893C81.4706 21.2893 71.4787 23.5908 62.5 27.718M92 21.2893C102.529 21.2893 112.521 23.5907 121.5 27.718M92 21.2893L92 92L92.0001 162.711M92.0001 162.711C81.4707 162.711 71.4788 160.409 62.5001 156.282M92.0001 162.711C102.529 162.711 112.521 160.409 121.5 156.282M21.2894 92C21.2894 120.523 38.1776 145.102 62.5001 156.282M21.2894 92C21.2894 63.4769 38.1775 38.8984 62.5 27.718M21.2894 92C21.2894 92 56.5 104.5 92 104.5C127.5 104.5 162.711 92 162.711 92M62.5001 156.282C62.5001 156.282 52.5 127 52.5 92C52.5 57 62.5 27.718 62.5 27.718M121.5 156.282C145.823 145.102 162.711 120.523 162.711 92M121.5 156.282C121.5 156.282 131.5 127 131.5 92C131.5 57 121.5 27.718 121.5 27.718M162.711 92C162.711 63.4769 145.823 38.8983 121.5 27.718" stroke="black" stroke-width="8"/>
</g>
<defs>
<clipPath id="clip0_8_2">
<rect width="184" height="184"/>
</clipPath>
</defs>
</svg>
